<svg xmlns="http://www.w3.org/2000/svg" xmlns:xlink="http://www.w3.org/1999/xlink" viewBox="0 0 16 16">
      <g id="inf-help--outline">
        <path d="M8 0C3.6 0 0 3.6 0 8C0 12.4 3.6 16 8 16C12.4 16 16 12.4 16 8C16 3.6 12.4 0 8 0ZM8 14C4.7 14 2 11.3 2 8C2 4.7 4.7 2 8 2C11.3 2 14 4.7 14 8C14 11.3 11.3 14 8 14Z" fill="#000000"></path>
      <path d="M8 13C8.55228 13 9 12.5523 9 12C9 11.4477 8.55228 11 8 11C7.44772 11 7 11.4477 7 12C7 12.5523 7.44772 13 8 13Z" fill="#000000"></path>
      <path d="M7.09999 5.5C7.29999 5.2 7.59999 5 7.99999 5C8.59999 5 8.99999 5.4 8.99999 6C8.99999 6.3 8.89999 6.4 8.39999 6.7C7.79999 7.1 6.99999 7.7 6.99999 9V10H8.99999V9C8.99999 8.8 8.99999 8.7 9.49999 8.4C10.1 8 11 7.4 11 6C11 4.3 9.69999 3 7.99999 3C6.89999 3 5.89999 3.6 5.39999 4.5L4.89999 5.4L6.59999 6.4L7.09999 5.5Z" fill="#000000"></path>
      </g>
    </svg>