<svg xmlns="http://www.w3.org/2000/svg" xmlns:xlink="http://www.w3.org/1999/xlink" viewBox="0 0 16 16">
      <g id="mpa-eyesight--filled--off">
        <path d="M14.6 5.60001L6.39999 13.8C6.89999 13.9 7.49999 14 7.99999 14C11.6 14 14.4 10.9 15.6 9.10001C16.1 8.40001 16.1 7.50001 15.6 6.80001C15.4 6.50001 15 6.10001 14.6 5.60001Z" fill="#000000"></path>
      <path d="M14.3 0.3L11.6 3C10.5 2.4 9.3 2 8 2C4.4 2 1.6 5.1 0.4 6.9C-0.1 7.6 -0.1 8.5 0.4 9.1C0.9 9.9 1.8 10.9 2.8 11.8L0.3 14.3C-0.1 14.7 -0.1 15.3 0.3 15.7C0.5 15.9 0.7 16 1 16C1.3 16 1.5 15.9 1.7 15.7L15.7 1.7C16.1 1.3 16.1 0.7 15.7 0.3C15.3 -0.1 14.7 -0.1 14.3 0.3ZM5.3 9.3C5.1 8.9 5 8.5 5 8C5 6.3 6.3 5 8 5C8.5 5 8.9 5.1 9.3 5.3L5.3 9.3Z" fill="#000000"></path>
      </g>
    </svg>