<svg xmlns="http://www.w3.org/2000/svg" xmlns:xlink="http://www.w3.org/1999/xlink" viewBox="0 0 16 16">
      <g id="mpa-remove">
        <path d="M19.586 0.428571C19.0141 -0.142857 18.1564 -0.142857 17.5845 0.428571L10.0074 8L2.43038 0.428571C1.85853 -0.142857 1.00074 -0.142857 0.42889 0.428571C-0.142964 1 -0.142964 1.85714 0.42889 2.42857L8.00595 10L0.42889 17.5714C-0.142964 18.1429 -0.142964 19 0.42889 19.5714C0.714817 19.8571 1.00074 20 1.42963 20C1.85853 20 2.14445 19.8571 2.43038 19.5714L10.0074 12L17.5845 19.5714C17.8704 19.8571 18.2993 20 18.5853 20C18.8712 20 19.3001 19.8571 19.586 19.5714C20.1578 19 20.1578 18.1429 19.586 17.5714L12.0089 10L19.586 2.42857C20.1578 1.85714 20.1578 1 19.586 0.428571Z" fill="#000000"></path>
      </g>
    </svg>