<svg xmlns="http://www.w3.org/2000/svg" xmlns:xlink="http://www.w3.org/1999/xlink" viewBox="0 0 16 16">
      <g id="mpa-eyesight--filled--on">
        <path d="M7.975 14C11.575 14 14.375 10.9 15.575 9.1C16.075 8.4 16.075 7.5 15.575 6.8C14.375 5.1 11.575 2 7.975 2C4.375 2 1.575 5.1 0.375 6.9C-0.125 7.6 -0.125 8.5 0.375 9.1C1.575 10.9 4.375 14 7.975 14ZM7.975 5C9.675 5 10.975 6.3 10.975 8C10.975 9.7 9.675 11 7.975 11C6.275 11 4.975 9.7 4.975 8C4.975 6.3 6.275 5 7.975 5Z" fill="#000000"></path>
      </g>
    </svg>