<svg xmlns="http://www.w3.org/2000/svg" xmlns:xlink="http://www.w3.org/1999/xlink" viewBox="0 0 16 16">
      <g id="mpa-swap">
        <path fill-rule="evenodd" clip-rule="evenodd" d="M5.53598 18.7459C7.09743 19.7676 8.92251 20.3199 10.7845 20.3199C16.1971 20.3199 20.6002 15.7623 20.6002 10.1599C20.6002 4.55758 16.1971 0 10.7845 0C5.63795 0 1.40399 4.12068 1.00032 9.34205C0.9655 9.79246 1.33505 10.1599 1.7868 10.1599C2.23856 10.1599 2.60076 9.79265 2.64256 9.34284C3.04095 5.05624 6.54048 1.69332 10.7845 1.69332C15.2948 1.69332 18.9643 5.49145 18.9643 10.1599C18.9643 14.8284 15.2948 18.6266 10.7845 18.6266C9.22645 18.6266 7.70006 18.1624 6.39587 17.3047L7.71056 17.0612C8.16986 16.9761 8.4777 16.534 8.39813 16.0737C8.31856 15.6134 7.88171 15.3093 7.42241 15.3943L4.25458 15.9811L4.24312 15.9833L4.22789 15.9859C3.7832 16.0683 3.48516 16.4963 3.5622 16.942L4.14767 20.3287C4.2247 20.7743 4.64765 21.0688 5.09234 20.9865C5.53704 20.9041 5.83508 20.4761 5.75804 20.0304L5.53598 18.7459Z" fill="#000000"></path>
      </g>
    </svg>