<svg xmlns="http://www.w3.org/2000/svg" xmlns:xlink="http://www.w3.org/1999/xlink" viewBox="0 0 16 16">
      <g id="mpa-globe">
        <path d="M8,0C3.6,0,0,3.6,0,8s3.6,8,8,8s8-3.6,8-8S12.4,0,8,0z M13.9,7H12c-0.1-1.5-0.4-2.9-0.8-4.1 C12.6,3.8,13.6,5.3,13.9,7z M8,14c-0.6,0-1.8-1.9-2-5H10C9.8,12.1,8.6,14,8,14z M6,7c0.2-3.1,1.3-5,2-5s1.8,1.9,2,5H6z M4.9,2.9 C4.4,4.1,4.1,5.5,4,7H2.1C2.4,5.3,3.4,3.8,4.9,2.9z M2.1,9H4c0.1,1.5,0.4,2.9,0.8,4.1C3.4,12.2,2.4,10.7,2.1,9z M11.1,13.1 c0.5-1.2,0.7-2.6,0.8-4.1h1.9C13.6,10.7,12.6,12.2,11.1,13.1z" fill="#000000"></path>
      </g>
    </svg>