<svg xmlns="http://www.w3.org/2000/svg" xmlns:xlink="http://www.w3.org/1999/xlink" viewBox="0 0 16 16">
      <g id="sti-close--outline">
        <path d="M10.4536 4.85355C10.2583 4.65829 9.94171 4.65829 9.74645 4.85355L8 6.6L6.25355 4.85355C6.05829 4.65829 5.74171 4.65829 5.54645 4.85355L4.85355 5.54645C4.65829 5.74171 4.65829 6.05829 4.85355 6.25355L6.6 8L4.85355 9.74645C4.65829 9.94171 4.65829 10.2583 4.85355 10.4536L5.54645 11.1464C5.74171 11.3417 6.05829 11.3417 6.25355 11.1464L8 9.4L9.74645 11.1464C9.94171 11.3417 10.2583 11.3417 10.4536 11.1464L11.1464 10.4536C11.3417 10.2583 11.3417 9.94171 11.1464 9.74645L9.4 8L11.1464 6.25355C11.3417 6.05829 11.3417 5.74171 11.1464 5.54645L10.4536 4.85355Z" fill="#000000"></path>
      <path d="M8 0C3.6 0 0 3.6 0 8C0 12.4 3.6 16 8 16C12.4 16 16 12.4 16 8C16 3.6 12.4 0 8 0ZM8 14C4.7 14 2 11.3 2 8C2 4.7 4.7 2 8 2C11.3 2 14 4.7 14 8C14 11.3 11.3 14 8 14Z" fill="#000000"></path>
      </g>
    </svg>