<svg xmlns="http://www.w3.org/2000/svg" xmlns:xlink="http://www.w3.org/1999/xlink" viewBox="0 0 16 16">
      <g id="sti-clock">
        <path d="M8 0C3.6 0 0 3.6 0 8C0 12.4 3.6 16 8 16C12.4 16 16 12.4 16 8C16 3.6 12.4 0 8 0ZM8 14C4.7 14 2 11.3 2 8C2 4.7 4.7 2 8 2C11.3 2 14 4.7 14 8C14 11.3 11.3 14 8 14Z" fill="#000000"></path>
      <path d="M9 4.5C9 4.22386 8.77614 4 8.5 4H7.5C7.22386 4 7 4.22386 7 4.5V8C7 8.55228 7.44772 9 8 9H11.5C11.7761 9 12 8.77614 12 8.5V7.5C12 7.22386 11.7761 7 11.5 7H9V4.5Z" fill="#000000"></path>
      </g>
    </svg>