<svg xmlns="http://www.w3.org/2000/svg" xmlns:xlink="http://www.w3.org/1999/xlink" viewBox="0 0 16 16">
      <g id="sti-check--outline">
        <path d="M8 0C3.589 0 0 3.589 0 8C0 12.411 3.589 16 8 16C12.411 16 16 12.411 16 8C16 3.589 12.411 0 8 0ZM8 14C4.691 14 2 11.309 2 8C2 4.691 4.691 2 8 2C11.309 2 14 4.691 14 8C14 11.309 11.309 14 8 14Z" fill="#000000"></path>
      <path d="M7.35355 11.0604C7.15829 11.2557 6.84171 11.2557 6.64645 11.0604L3.93955 8.35355C3.74429 8.15829 3.74429 7.84171 3.93955 7.64645L4.64645 6.93955C4.84171 6.74429 5.15829 6.74429 5.35355 6.93955L7 8.586L10.6464 4.93955C10.8417 4.74429 11.1583 4.74429 11.3536 4.93955L12.0604 5.64645C12.2557 5.84171 12.2557 6.15829 12.0604 6.35355L7.35355 11.0604Z" fill="#000000"></path>
      </g>
    </svg>