<svg xmlns="http://www.w3.org/2000/svg" xmlns:xlink="http://www.w3.org/1999/xlink" viewBox="0 0 16 16">
      <g id="bnd-logo">
        <path d="M14.8018 2H2.8541C1.92768 2 1.33445 2.93596 1.76795 3.71405L2.96368 5.86466H0.796482C0.659276 5.8647 0.524407 5.89841 0.404937 5.96253C0.285467 6.02665 0.185446 6.119 0.114562 6.23064C0.0436777 6.34228 0.0043325 6.46943 0.000337815 6.59976C-0.00365688 6.73009 0.0278339 6.8592 0.0917605 6.97457L3.93578 13.8888C4.00355 14.0104 4.10491 14.1121 4.22896 14.1831C4.35301 14.254 4.49507 14.2915 4.63987 14.2915C4.78466 14.2915 4.92672 14.254 5.05077 14.1831C5.17483 14.1121 5.27618 14.0104 5.34395 13.8888L6.38793 12.0211L7.69771 14.3775C8.15868 15.2063 9.40744 15.2078 9.87001 14.38L15.8585 3.67064C16.2818 2.91319 15.7043 2 14.8018 2ZM9.43491 6.57566L6.85274 11.1944C6.80761 11.2753 6.74016 11.3429 6.65762 11.3901C6.57508 11.4373 6.48058 11.4622 6.38426 11.4622C6.28794 11.4622 6.19344 11.4373 6.1109 11.3901C6.02836 11.3429 5.96091 11.2753 5.91578 11.1944L3.35853 6.59509C3.31587 6.51831 3.29482 6.43236 3.2974 6.34558C3.29998 6.25879 3.3261 6.17411 3.37325 6.09974C3.4204 6.02538 3.48696 5.96385 3.56649 5.92112C3.64601 5.87839 3.73581 5.85591 3.82717 5.85585H8.97937C9.06831 5.85591 9.15572 5.87782 9.23312 5.91945C9.31052 5.96108 9.37529 6.02102 9.42113 6.09345C9.46697 6.16588 9.49232 6.24834 9.49474 6.33283C9.49716 6.41732 9.47655 6.50097 9.43491 6.57566Z" fill="#000000"></path>
      <path d="M14.8018 2H2.8541C1.92768 2 1.33445 2.93596 1.76795 3.71405L2.96368 5.86466H0.796482C0.659276 5.8647 0.524407 5.89841 0.404937 5.96253C0.285467 6.02665 0.185446 6.119 0.114562 6.23064C0.0436777 6.34228 0.0043325 6.46943 0.000337815 6.59976C-0.00365688 6.73009 0.0278339 6.8592 0.0917605 6.97457L3.93578 13.8888C4.00355 14.0104 4.10491 14.1121 4.22896 14.1831C4.35301 14.254 4.49507 14.2915 4.63987 14.2915C4.78466 14.2915 4.92672 14.254 5.05077 14.1831C5.17483 14.1121 5.27618 14.0104 5.34395 13.8888L6.38793 12.0211L7.69771 14.3775C8.15868 15.2063 9.40744 15.2078 9.87001 14.38L15.8585 3.67064C16.2818 2.91319 15.7043 2 14.8018 2ZM9.43491 6.57566L6.85274 11.1944C6.80761 11.2753 6.74016 11.3429 6.65762 11.3901C6.57508 11.4373 6.48058 11.4622 6.38426 11.4622C6.28794 11.4622 6.19344 11.4373 6.1109 11.3901C6.02836 11.3429 5.96091 11.2753 5.91578 11.1944L3.35853 6.59509C3.31587 6.51831 3.29482 6.43236 3.2974 6.34558C3.29998 6.25879 3.3261 6.17411 3.37325 6.09974C3.4204 6.02538 3.48696 5.96385 3.56649 5.92112C3.64601 5.87839 3.73581 5.85591 3.82717 5.85585H8.97937C9.06831 5.85591 9.15572 5.87782 9.23312 5.91945C9.31052 5.96108 9.37529 6.02102 9.42113 6.09345C9.46697 6.16588 9.49232 6.24834 9.49474 6.33283C9.49716 6.41732 9.47655 6.50097 9.43491 6.57566Z" fill="#000000"></path>
      </g>
    </svg>