<svg xmlns="http://www.w3.org/2000/svg" xmlns:xlink="http://www.w3.org/1999/xlink" viewBox="0 0 16 16">
      <g id="hpa-calendar">
        <path d="M5.66667 7.2H4.11111V8.8H5.66667V7.2ZM8.77778 7.2H7.22222V8.8H8.77778V7.2ZM11.8889 7.2H10.3333V8.8H11.8889V7.2ZM13.4444 1.6H12.6667V0H11.1111V1.6H4.88889V0H3.33333V1.6H2.55556C1.69222 1.6 1.00778 2.32 1.00778 3.2L1 14.4C1 15.28 1.69222 16 2.55556 16H13.4444C14.3 16 15 15.28 15 14.4V3.2C15 2.32 14.3 1.6 13.4444 1.6ZM13.4444 14.4H2.55556V5.6H13.4444V14.4Z" fill="#000000"></path>
      </g>
    </svg>