<svg xmlns="http://www.w3.org/2000/svg" xmlns:xlink="http://www.w3.org/1999/xlink" viewBox="0 0 16 16">
      <g id="mpa-arrows">
        <path d="M15.829 7.55346L13.829 5.33123C13.7707 5.26579 13.7 5.21249 13.6211 5.17438C13.5422 5.13627 13.4565 5.11411 13.369 5.10916C13.2814 5.1042 13.1938 5.11656 13.1111 5.14551C13.0283 5.17447 12.9521 5.21945 12.8868 5.2779C12.7567 5.39693 12.6783 5.5621 12.6683 5.73815C12.6584 5.9142 12.7176 6.08717 12.8335 6.22012L13.8735 7.37568H8.62012V2.12234L9.77568 3.16234C9.84101 3.22079 9.91722 3.26578 9.99996 3.29473C10.0827 3.32369 10.1703 3.33604 10.2578 3.33109C10.3454 3.32613 10.431 3.30397 10.51 3.26586C10.5889 3.22776 10.6596 3.17445 10.7179 3.10901C10.8337 2.97606 10.893 2.80309 10.883 2.62704C10.8731 2.45099 10.7947 2.28581 10.6646 2.16679L8.44234 0.166788C8.31925 0.0592572 8.16135 0 7.9979 0C7.83445 0 7.67655 0.0592572 7.55345 0.166788L5.33123 2.16679C5.19921 2.28466 5.11943 2.45015 5.10943 2.62685C5.09942 2.80355 5.16003 2.97699 5.2779 3.10901C5.39577 3.24103 5.56126 3.32082 5.73796 3.33082C5.91467 3.34082 6.0881 3.28022 6.22012 3.16234L7.37568 2.12234V7.37568H2.12234L3.16234 6.22012C3.27818 6.08717 3.33745 5.9142 3.32748 5.73815C3.31752 5.5621 3.23911 5.39693 3.10901 5.2779C3.04368 5.21945 2.96747 5.17447 2.88473 5.14551C2.80199 5.11656 2.71436 5.1042 2.62684 5.10916C2.53932 5.11411 2.45364 5.13627 2.3747 5.17438C2.29576 5.21249 2.22511 5.26579 2.16679 5.33123L0.166788 7.55346C0.0592572 7.67655 0 7.83445 0 7.9979C0 8.16135 0.0592572 8.31925 0.166788 8.44234L2.16679 10.6646C2.22511 10.73 2.29576 10.7833 2.3747 10.8214C2.45364 10.8595 2.53932 10.8817 2.62684 10.8866C2.71436 10.8916 2.80199 10.8792 2.88473 10.8503C2.96747 10.8213 3.04368 10.7763 3.10901 10.7179C3.23911 10.5989 3.31752 10.4337 3.32748 10.2576C3.33745 10.0816 3.27818 9.90862 3.16234 9.77568L2.12234 8.62012H7.37568V13.8735L6.22012 12.8335C6.0881 12.7156 5.91467 12.655 5.73796 12.665C5.56126 12.675 5.39577 12.7548 5.2779 12.8868C5.16003 13.0188 5.09942 13.1922 5.10943 13.3689C5.11943 13.5456 5.19921 13.7111 5.33123 13.829L7.55345 15.829C7.67568 15.9383 7.83391 15.9988 7.9979 15.9988C8.16188 15.9988 8.32012 15.9383 8.44234 15.829L10.6646 13.829C10.7299 13.7706 10.7832 13.7 10.8212 13.621C10.8593 13.5421 10.8814 13.4564 10.8864 13.3689C10.8913 13.2815 10.879 13.1938 10.8501 13.1111C10.8212 13.0284 10.7763 12.9522 10.7179 12.8868C10.6595 12.8214 10.5889 12.7682 10.5099 12.7301C10.431 12.6921 10.3453 12.6699 10.2578 12.665C10.1703 12.66 10.0827 12.6724 10 12.7013C9.91727 12.7302 9.84105 12.7751 9.77568 12.8335L8.62012 13.8735V8.62012H13.8735L12.8335 9.77568C12.7176 9.90862 12.6584 10.0816 12.6683 10.2576C12.6783 10.4337 12.7567 10.5989 12.8868 10.7179C12.9521 10.7763 13.0283 10.8213 13.1111 10.8503C13.1938 10.8792 13.2814 10.8916 13.369 10.8866C13.4565 10.8817 13.5422 10.8595 13.6211 10.8214C13.7 10.7833 13.7707 10.73 13.829 10.6646L15.829 8.44234C15.9365 8.31925 15.9958 8.16135 15.9958 7.9979C15.9958 7.83445 15.9365 7.67655 15.829 7.55346Z" fill="#000000"></path>
      </g>
    </svg>