<svg xmlns="http://www.w3.org/2000/svg" xmlns:xlink="http://www.w3.org/1999/xlink" viewBox="0 0 16 16">
      <g id="mpa-bars">
        <path fill-rule="evenodd" d="M0 12.7778C0 13.2687 0.397969 13.6667 0.888889 13.6667H15.1111C15.602 13.6667 16 13.2687 16 12.7778C16 12.2869 15.602 11.8889 15.1111 11.8889H0.888889C0.397969 11.8889 0 12.2869 0 12.7778ZM0 8.33333C0 8.82425 0.397969 9.22222 0.888889 9.22222H15.1111C15.602 9.22222 16 8.82425 16 8.33333C16 7.84241 15.602 7.44444 15.1111 7.44444H0.888889C0.397969 7.44444 0 7.84241 0 8.33333ZM0.888889 3C0.397969 3 0 3.39797 0 3.88889C0 4.37981 0.397969 4.77778 0.888889 4.77778H15.1111C15.602 4.77778 16 4.37981 16 3.88889C16 3.39797 15.602 3 15.1111 3H0.888889Z" fill="#000000"></path>
      </g>
    </svg>