<svg xmlns="http://www.w3.org/2000/svg" xmlns:xlink="http://www.w3.org/1999/xlink" viewBox="0 0 16 16">
      <g id="mpa-gallery">
        <path d="M6 0H1C0.4 0 0 0.4 0 1V6C0 6.6 0.4 7 1 7H6C6.6 7 7 6.6 7 6V1C7 0.4 6.6 0 6 0Z" fill="#000000"></path>
      <path d="M15 0H10C9.4 0 9 0.4 9 1V6C9 6.6 9.4 7 10 7H15C15.6 7 16 6.6 16 6V1C16 0.4 15.6 0 15 0Z" fill="#000000"></path>
      <path d="M6 9H1C0.4 9 0 9.4 0 10V15C0 15.6 0.4 16 1 16H6C6.6 16 7 15.6 7 15V10C7 9.4 6.6 9 6 9Z" fill="#000000"></path>
      <path d="M15 9H10C9.4 9 9 9.4 9 10V15C9 15.6 9.4 16 10 16H15C15.6 16 16 15.6 16 15V10C16 9.4 15.6 9 15 9Z" fill="#000000"></path>
      </g>
    </svg>