<svg xmlns="http://www.w3.org/2000/svg" xmlns:xlink="http://www.w3.org/1999/xlink" viewBox="0 0 16 16">
      <g id="mpa-eyesight--outline--on">
        <path d="M8.00013 14C12.7071 14 15.7441 8.716 15.8711 8.492C16.0421 8.188 16.0431 7.816 15.8721 7.512C15.7461 7.287 12.7311 2 8.00013 2C3.24513 2 0.251127 7.289 0.126127 7.514C-0.0428725 7.817 -0.0418725 8.186 0.128127 8.489C0.254128 8.713 3.26913 14 8.00013 14ZM8.00013 4C10.8391 4 13.0361 6.835 13.8181 8C13.0341 9.166 10.8371 12 8.00013 12C5.15913 12 2.96213 9.162 2.18113 7.999C2.95813 6.835 5.14613 4 8.00013 4Z" fill="#000000"></path>
      <path d="M8 11C9.65685 11 11 9.65685 11 8C11 6.34315 9.65685 5 8 5C6.34315 5 5 6.34315 5 8C5 9.65685 6.34315 11 8 11Z" fill="#000000"></path>
      </g>
    </svg>