<svg xmlns="http://www.w3.org/2000/svg" xmlns:xlink="http://www.w3.org/1999/xlink" viewBox="0 0 16 16">
      <g id="mpa-credit-card">
        <path d="M13.7142 3.49469C13.8938 3.49469 14.1326 3.56604 14.2596 3.69305C14.3866 3.82006 14.487 3.99232 14.487 4.17194L14.5051 11.2408C14.5051 11.4204 14.4338 11.5927 14.3068 11.7197C14.1798 11.8467 14.0075 11.918 13.8279 11.918L2.30637 11.9181C2.12676 11.9181 1.95449 11.8467 1.82749 11.7197C1.70048 11.5927 1.62912 11.4205 1.62912 11.2408L1.58197 4.172C1.58197 3.99238 1.65333 3.82012 1.78033 3.69311C1.90734 3.56611 2.0796 3.49475 2.25922 3.49475L13.7142 3.49469ZM14.3177 2L1.75127 2.00006C1.30223 2.00006 0.871578 2.17845 0.554056 2.49597C0.236534 2.81349 0 3.24414 0 3.69319L0.0472208 11.8334C0.0472208 12.2825 0.225603 12.7131 0.543125 13.0306C0.860646 13.3482 1.2913 13.5266 1.74034 13.5266L14.3068 13.5265C14.7558 13.5265 15.1865 13.3481 15.504 13.0306C15.8215 12.7131 15.9999 12.2824 15.9999 11.8334L16.0108 3.69312C16.0108 3.24408 15.8325 2.81343 15.5149 2.4959C15.1974 2.17838 14.7668 2 14.3177 2ZM13.4139 5.18788C13.4139 5.00826 13.3426 4.836 13.2156 4.70899C13.0886 4.58198 12.9163 4.51063 12.7367 4.51063H10.2682C10.0885 4.51063 9.91629 4.58198 9.78928 4.70899C9.66227 4.836 9.59092 5.00826 9.59092 5.18788C9.59092 5.36749 9.66227 5.53975 9.78928 5.66676C9.91629 5.79377 10.0885 5.86512 10.2682 5.86512H12.7367C12.9163 5.86512 13.0886 5.79377 13.2156 5.66676C13.3426 5.53975 13.4139 5.36749 13.4139 5.18788ZM3.91809 9.58997C3.91899 9.53426 3.90879 9.47893 3.88809 9.42721C3.86739 9.37548 3.83661 9.32839 3.79753 9.28868C3.75845 9.24896 3.71185 9.21743 3.66046 9.1959C3.60907 9.17438 3.55391 9.1633 3.4982 9.16331H2.84384C2.78376 9.15569 2.72275 9.16095 2.66486 9.17874C2.60697 9.19653 2.55353 9.22644 2.5081 9.26648C2.46266 9.30652 2.42627 9.35578 2.40134 9.41097C2.37642 9.46616 2.36352 9.52603 2.36352 9.58659C2.36352 9.64715 2.37642 9.70701 2.40134 9.76221C2.42627 9.8174 2.46266 9.86665 2.5081 9.90669C2.55353 9.94673 2.60697 9.97664 2.66486 9.99443C2.72275 10.0122 2.78376 10.0175 2.84384 10.0099H3.4982C3.55334 10.0099 3.60794 9.99901 3.65888 9.9779C3.70983 9.9568 3.75611 9.92587 3.79511 9.88688C3.8341 9.84789 3.86503 9.8016 3.88613 9.75066C3.90723 9.69972 3.91809 9.64511 3.91809 9.58997ZM10.5806 9.58896C10.5815 9.53325 10.5713 9.47792 10.5506 9.42619C10.5299 9.37446 10.4991 9.32737 10.46 9.28766C10.4209 9.24795 10.3743 9.21641 10.3229 9.19489C10.2715 9.17336 10.2164 9.16228 10.1607 9.16229L9.39853 9.1661C9.33845 9.15848 9.27744 9.16374 9.21955 9.18153C9.16166 9.19932 9.10822 9.22923 9.06279 9.26927C9.01735 9.30931 8.98096 9.35857 8.95604 9.41376C8.93111 9.46895 8.91822 9.52882 8.91822 9.58938C8.91822 9.64994 8.93111 9.7098 8.95604 9.765C8.98096 9.82019 9.01735 9.86944 9.06279 9.90948C9.10822 9.94952 9.16166 9.97943 9.21955 9.99722C9.27744 10.015 9.33845 10.0203 9.39853 10.0127L10.1607 10.0088C10.272 10.0088 10.3788 9.96461 10.4576 9.88587C10.5363 9.80712 10.5806 9.70032 10.5806 9.58896ZM8.26409 9.59276C8.2641 9.48077 8.22008 9.37326 8.14152 9.29343C8.06296 9.21361 7.95617 9.16787 7.84419 9.1661L7.12468 9.16568C7.0646 9.15806 7.00359 9.16332 6.9457 9.18111C6.88781 9.1989 6.83437 9.22881 6.78894 9.26885C6.7435 9.30889 6.70711 9.35814 6.68218 9.41334C6.65726 9.46853 6.64436 9.5284 6.64436 9.58896C6.64436 9.64952 6.65726 9.70938 6.68218 9.76458C6.70711 9.81977 6.7435 9.86902 6.78894 9.90906C6.83437 9.9491 6.88781 9.97901 6.9457 9.9968C7.00359 10.0146 7.0646 10.0199 7.12468 10.0122L7.84419 10.0127C7.95555 10.0127 8.06236 9.96842 8.1411 9.88967C8.21985 9.81093 8.26409 9.70413 8.26409 9.59276ZM6.0303 9.59234C6.0303 9.47918 5.98534 9.37066 5.90533 9.29064C5.82531 9.21063 5.71679 9.16568 5.60363 9.16568L4.87065 9.16331C4.76761 9.17637 4.67287 9.22657 4.60419 9.30449C4.53552 9.38242 4.49763 9.48272 4.49763 9.58659C4.49763 9.69045 4.53552 9.79075 4.60419 9.86868C4.67287 9.94661 4.76761 9.99681 4.87065 10.0099L5.60363 10.0122C5.71562 10.0122 5.82313 9.96823 5.90296 9.88967C5.98278 9.81112 6.02852 9.70432 6.0303 9.59234Z" fill="#000000"></path>
      </g>
    </svg>