<svg xmlns="http://www.w3.org/2000/svg" xmlns:xlink="http://www.w3.org/1999/xlink" viewBox="0 0 16 16">
      <g id="mpa-filter-settings">
        <path d="M4 5V1" stroke="#4F4F4F" stroke-miterlimit="10" stroke-linecap="round" stroke-linejoin="round"></path>
      <path d="M4 16V14" stroke="#4F4F4F" stroke-miterlimit="10" stroke-linecap="round" stroke-linejoin="round"></path>
      <path d="M13 12V16" stroke="#4F4F4F" stroke-miterlimit="10" stroke-linecap="round" stroke-linejoin="round"></path>
      <path d="M13 1V3" stroke="#4F4F4F" stroke-miterlimit="10" stroke-linecap="round" stroke-linejoin="round"></path>
      <path d="M4 14C5.65685 14 7 12.6569 7 11C7 9.34315 5.65685 8 4 8C2.34315 8 1 9.34315 1 11C1 12.6569 2.34315 14 4 14Z" stroke="#4F4F4F" stroke-miterlimit="10" stroke-linecap="round" stroke-linejoin="round"></path>
      <path d="M13 9C14.6569 9 16 7.65685 16 6C16 4.34315 14.6569 3 13 3C11.3431 3 10 4.34315 10 6C10 7.65685 11.3431 9 13 9Z" stroke="#4F4F4F" stroke-miterlimit="10" stroke-linecap="round" stroke-linejoin="round"></path>
      </g>
    </svg>