<svg xmlns="http://www.w3.org/2000/svg" xmlns:xlink="http://www.w3.org/1999/xlink" viewBox="0 0 16 16">
      <g id="mpa-eyesight--outline--off">
        <path d="M14.5744 5.66925L13.1504 7.09325C13.4284 7.44025 13.6564 7.75725 13.8194 8.00025C13.0594 9.13025 10.9694 11.8203 8.25838 11.9852L6.44337 13.8003C6.93937 13.9243 7.45737 14.0002 8.00037 14.0002C12.7074 14.0002 15.7444 8.71625 15.8714 8.49225C16.0424 8.18825 16.0434 7.81625 15.8724 7.51225C15.8254 7.42725 15.3724 6.63125 14.5744 5.66925Z" fill="#000000"></path>
      <path d="M0.293375 15.7072C0.488375 15.9022 0.744375 16.0002 1.00038 16.0002C1.25638 16.0002 1.51238 15.9022 1.70738 15.7072L15.7074 1.70725C16.0984 1.31625 16.0984 0.68425 15.7074 0.29325C15.3164 -0.09775 14.6844 -0.09775 14.2934 0.29325L11.5484 3.03825C10.5154 2.43125 9.33138 2.00025 8.00037 2.00025C3.24537 2.00025 0.251375 7.28925 0.126375 7.51425C-0.0426249 7.81725 -0.0416249 8.18625 0.128375 8.48925C0.198375 8.61425 1.17238 10.2913 2.82138 11.7653L0.292375 14.2942C-0.0976249 14.6842 -0.0976249 15.3162 0.293375 15.7072ZM2.18138 7.99925C2.95837 6.83525 5.14637 4.00025 8.00037 4.00025C8.74237 4.00025 9.43738 4.20125 10.0784 4.50825L8.51237 6.07425C8.34838 6.02925 8.17838 6.00025 8.00037 6.00025C6.89537 6.00025 6.00038 6.89525 6.00038 8.00025C6.00038 8.17825 6.02938 8.34825 6.07438 8.51225L4.24038 10.3462C3.28538 9.51025 2.55938 8.56225 2.18138 7.99925Z" fill="#000000"></path>
      </g>
    </svg>