<svg xmlns="http://www.w3.org/2000/svg" xmlns:xlink="http://www.w3.org/1999/xlink" viewBox="0 0 16 16">
      <g id="sti-discount">
        <path d="M7.99991 1.57331L8.7199 2.40886L9.1199 2.87108C9.17697 2.93924 9.25391 2.98788 9.33996 3.01019C9.42602 3.0325 9.5169 3.02737 9.5999 2.99552L10.1777 2.79997L11.2088 2.43553L11.4132 3.55552L11.5288 4.15107C11.5463 4.23881 11.5895 4.31939 11.6527 4.38266C11.716 4.44593 11.7966 4.48906 11.8843 4.50662L12.4799 4.62217L13.5643 4.82662L13.1999 5.85772L13.0043 6.43549C12.9725 6.51849 12.9673 6.60937 12.9896 6.69542C13.012 6.78148 13.0606 6.85842 13.1288 6.91549L13.591 7.31549L14.4265 8.03548L13.591 8.75547L13.1288 9.15547C13.0606 9.21254 13.012 9.28948 12.9896 9.37553C12.9673 9.46159 12.9725 9.55247 13.0043 9.63547L13.1999 10.2132L13.5643 11.2443L12.4443 11.4132L11.8488 11.5288C11.761 11.5463 11.6804 11.5895 11.6172 11.6527C11.5539 11.716 11.5108 11.7966 11.4932 11.8843L11.3777 12.4799L11.1732 13.5643L10.1421 13.1999L9.56434 13.0043C9.48134 12.9725 9.39046 12.9673 9.30441 12.9897C9.21835 13.012 9.14142 13.0606 9.08434 13.1288L8.68435 13.591L7.99991 14.4265L7.27991 13.591L6.87992 13.1288C6.82285 13.0606 6.74591 13.012 6.65985 12.9897C6.5738 12.9673 6.48292 12.9725 6.39992 13.0043L5.82215 13.1999L4.79105 13.5643L4.5866 12.4443L4.51549 12.1643L4.44438 11.8843C4.42682 11.7966 4.38369 11.716 4.32042 11.6527C4.25715 11.5895 4.17657 11.5463 4.08883 11.5288L3.5555 11.4132L2.47107 11.2088L2.83551 10.1777L3.03106 9.59991C3.06291 9.51691 3.06804 9.42603 3.04573 9.33998C3.02342 9.25392 2.97478 9.17699 2.90662 9.11992L2.4444 8.71992L1.5733 7.99992L2.40885 7.27993L2.87106 6.87993C2.93923 6.82286 2.98786 6.74592 3.01017 6.65987C3.03248 6.57381 3.02736 6.48294 2.99551 6.39994L2.79995 5.82217L2.43551 4.79106L3.5555 4.58662L4.1155 4.4444C4.20324 4.42684 4.28382 4.38371 4.34709 4.32044C4.41036 4.25717 4.45349 4.17658 4.47105 4.08885L4.5866 3.55552L4.79105 2.47108L5.82215 2.83552L6.39992 3.03108C6.48292 3.06293 6.5738 3.06805 6.65985 3.04574C6.74591 3.02343 6.82285 2.9748 6.87992 2.90663L7.27991 2.44442L7.99991 1.57331ZM6.26659 1.57331L4.73771 1.03998C4.61843 0.994907 4.49084 0.976025 4.36361 0.984619C4.23637 0.993213 4.11248 1.02908 4.00034 1.08979C3.8882 1.1505 3.79043 1.23463 3.71368 1.33646C3.63692 1.43829 3.58298 1.55545 3.5555 1.67998L3.27106 3.27108L1.67996 3.55552C1.5544 3.57915 1.43541 3.62956 1.3311 3.70333C1.22679 3.77711 1.1396 3.8725 1.07549 3.98301C1.01138 4.09352 0.971841 4.21656 0.959575 4.34373C0.947309 4.4709 0.962602 4.59922 1.00441 4.71995L1.53774 6.24883L0.311085 7.32437C0.213504 7.40782 0.13516 7.51142 0.081442 7.62804C0.0277243 7.74466 -9.15527e-05 7.87153 -9.15527e-05 7.99992C-9.15527e-05 8.12832 0.0277243 8.25519 0.081442 8.37181C0.13516 8.48843 0.213504 8.59203 0.311085 8.67547L1.53774 9.77769L1.00441 11.3066C0.967083 11.4257 0.955261 11.5513 0.969716 11.6753C0.984171 11.7993 1.02458 11.9189 1.08831 12.0262C1.15204 12.1335 1.23766 12.2262 1.3396 12.2983C1.44154 12.3703 1.55751 12.4201 1.67996 12.4443L3.27106 12.7466L3.5555 14.3199C3.57913 14.4454 3.62955 14.5644 3.70332 14.6687C3.77709 14.773 3.87248 14.8602 3.98299 14.9243C4.09351 14.9885 4.21654 15.028 4.34371 15.0403C4.47089 15.0525 4.59921 15.0372 4.71994 14.9954L6.24881 14.4621L7.30658 15.6887C7.39003 15.7863 7.49363 15.8647 7.61024 15.9184C7.72686 15.9721 7.85373 15.9999 7.98213 15.9999C8.11053 15.9999 8.2374 15.9721 8.35402 15.9184C8.47064 15.8647 8.57423 15.7863 8.65768 15.6887L9.77767 14.4621L11.3065 14.9954C11.4257 15.0328 11.5513 15.0446 11.6753 15.0301C11.7993 15.0157 11.9188 14.9753 12.0262 14.9115C12.1335 14.8478 12.2262 14.7622 12.2983 14.6602C12.3703 14.5583 12.4201 14.4423 12.4443 14.3199L12.7465 12.7288L14.3199 12.4443C14.4454 12.4207 14.5644 12.3703 14.6687 12.2965C14.773 12.2227 14.8602 12.1273 14.9243 12.0168C14.9884 11.9063 15.028 11.7833 15.0402 11.6561C15.0525 11.5289 15.0372 11.4006 14.9954 11.2799L14.4621 9.77769L15.6887 8.71992C15.7863 8.63647 15.8647 8.53287 15.9184 8.41625C15.9721 8.29964 15.9999 8.17276 15.9999 8.04437C15.9999 7.91597 15.9721 7.7891 15.9184 7.67248C15.8647 7.55586 15.7863 7.45227 15.6887 7.36882L14.4621 6.26661L14.9954 4.73773C15.0403 4.61598 15.058 4.48587 15.0473 4.35655C15.0365 4.22723 14.9976 4.10183 14.9332 3.98916C14.8688 3.87649 14.7805 3.77928 14.6746 3.70437C14.5686 3.62945 14.4475 3.57865 14.3199 3.55552L12.7288 3.2533L12.4443 1.67998C12.4207 1.55442 12.3703 1.43543 12.2965 1.33112C12.2227 1.2268 12.1273 1.13962 12.0168 1.07551C11.9063 1.01139 11.7833 0.971856 11.6561 0.95959C11.5289 0.947324 11.4006 0.962618 11.2799 1.00443L9.77767 1.53776L8.67546 0.311101C8.59201 0.21352 8.48841 0.135175 8.3718 0.0814573C8.25518 0.0277395 8.12831 -7.62939e-05 7.99991 -7.62939e-05C7.87151 -7.62939e-05 7.74464 0.0277395 7.62802 0.0814573C7.5114 0.135175 7.40781 0.21352 7.32436 0.311101L6.26659 1.57331ZM9.57323 4.88884H10.3377C10.37 4.88836 10.4018 4.89669 10.4298 4.91295C10.4577 4.92921 10.4807 4.95278 10.4962 4.98112C10.5117 5.00945 10.5193 5.04149 10.5179 5.07378C10.5166 5.10608 10.5066 5.1374 10.4888 5.16439L6.79992 10.9066C6.75976 10.9692 6.70454 11.0207 6.63932 11.0564C6.5741 11.0921 6.50095 11.1109 6.42659 11.111H5.66215C5.62984 11.1115 5.598 11.1032 5.57007 11.0869C5.54214 11.0706 5.51916 11.0471 5.50362 11.0187C5.48808 10.9904 5.48056 10.9584 5.48187 10.9261C5.48318 10.8938 5.49326 10.8624 5.51104 10.8355L9.1999 5.09328C9.24006 5.03069 9.29527 4.97918 9.3605 4.94346C9.42572 4.90774 9.49887 4.88896 9.57323 4.88884ZM9.99989 8.88881C9.78014 8.88881 9.56532 8.95397 9.3826 9.07606C9.19988 9.19815 9.05747 9.37168 8.97337 9.57471C8.88927 9.77773 8.86727 10.0011 8.91014 10.2167C8.95301 10.4322 9.05883 10.6302 9.21422 10.7856C9.36962 10.941 9.56759 11.0468 9.78313 11.0897C9.99866 11.1325 10.2221 11.1105 10.4251 11.0264C10.6281 10.9423 10.8017 10.7999 10.9237 10.6172C11.0458 10.4345 11.111 10.2197 11.111 9.99991C11.111 9.70522 10.9939 9.42261 10.7856 9.21424C10.5772 9.00587 10.2946 8.88881 9.99989 8.88881ZM5.99993 4.88884C5.78017 4.88884 5.56535 4.954 5.38263 5.07609C5.19991 5.19818 5.0575 5.37171 4.9734 5.57474C4.88931 5.77777 4.8673 6.00117 4.91017 6.21671C4.95305 6.43224 5.05887 6.63022 5.21426 6.78561C5.36965 6.941 5.56763 7.04682 5.78316 7.08969C5.99869 7.13257 6.2221 7.11056 6.42513 7.02646C6.62815 6.94237 6.80168 6.79996 6.92377 6.61724C7.04586 6.43452 7.11103 6.2197 7.11103 5.99994C7.11103 5.70526 6.99397 5.42265 6.78559 5.21427C6.57722 5.0059 6.29461 4.88884 5.99993 4.88884Z" fill="#000000"></path>
      </g>
    </svg>